<?xml version="1.0" encoding="UTF-8"?>
<svg id="Layer_1" data-name="Layer 1" xmlns="http://www.w3.org/2000/svg" version="1.1" viewBox="0 0 1080 1080">
  <defs>
    <style>
      .cls-1 {
        fill: #fff;
        stroke-width: 0px;
      }
    </style>
  </defs>
  <path class="cls-1" d="M23.5,662.7v-.7c0-38.6,29.4-56.4,71.3-56.4s30.7,3,43.2,7.3v-3c0-20.8-12.9-32.3-37.9-32.3s-25.1,2-34.6,4.9c-3,1-4.9,1.3-7.3,1.3-11.5,0-20.8-8.9-20.8-20.5s5.6-16.5,13.5-19.5c15.8-5.9,33-9.2,56.4-9.2s47.2,7.3,59.7,19.8c13.2,13.2,19.1,32.7,19.1,56.4v80.5c0,13.5-10.9,24.1-24.4,24.1s-24.1-10.2-24.1-20.8v-.3c-12.2,13.5-29,22.4-53.4,22.4s-60.7-19.1-60.7-54.1ZM138.7,651.2v-8.9c-8.6-4-19.8-6.6-32-6.6-21.4,0-34.6,8.6-34.6,24.4v.7c0,13.5,11.2,21.4,27.4,21.4,23.4,0,39.3-12.9,39.3-31Z"/>
  <path class="cls-1" d="M198.1,559.8c0-13.9,11.2-25.1,25.1-25.1s25.1,11.2,25.1,25.1v2.3c12.2-16.5,29-28.7,55.1-28.7,41.2,0,80.5,32.3,80.5,91.4v.7c0,59.1-38.6,91.4-80.5,91.4s-43.2-12.2-55.1-26.4v52.8c0,13.9-11.2,25.1-25.1,25.1s-25.1-11.2-25.1-25.1v-183.4ZM333.7,625.4v-.7c0-29.4-19.8-48.8-43.2-48.8s-42.9,19.5-42.9,48.8v.7c0,29.4,19.5,48.8,42.9,48.8s43.2-19.1,43.2-48.8Z"/>
  <path class="cls-1" d="M388.8,559.8c0-13.9,11.2-25.1,25.1-25.1s25.1,11.2,25.1,25.1v2.3c12.2-16.5,29-28.7,55.1-28.7,41.2,0,80.5,32.3,80.5,91.4v.7c0,59.1-38.6,91.4-80.5,91.4s-43.2-12.2-55.1-26.4v52.8c0,13.9-11.2,25.1-25.1,25.1s-25.1-11.2-25.1-25.1v-183.4ZM524.4,625.4v-.7c0-29.4-19.8-48.8-43.2-48.8s-42.9,19.5-42.9,48.8v.7c0,29.4,19.5,48.8,42.9,48.8s43.2-19.1,43.2-48.8Z"/>
  <path class="cls-1" d="M592,663.4v-83.8h-1.6c-11.9,0-21.4-9.6-21.4-21.4s9.6-21.4,21.4-21.4h1.6v-22.1c0-13.9,11.2-25.1,25.1-25.1s25.1,11.2,25.1,25.1v22.1h22.1c11.9,0,21.4,9.6,21.4,21.4s-9.6,21.4-21.4,21.4h-22.1v75.6c0,11.5,4.9,17.2,16.2,17.2s4.9-.3,5.9-.3c11.2,0,20.8,9.2,20.8,20.8s-5.9,16.2-12.9,18.8c-9.2,3.6-17.8,4.9-28.7,4.9-30.7,0-51.5-12.2-51.5-53.1Z"/>
  <path class="cls-1" d="M687.7,559.8c0-13.9,11.2-25.1,25.1-25.1s25.1,11.2,25.1,25.1v130.7c0,13.9-11.2,25.1-25.1,25.1s-25.1-11.2-25.1-25.1v-130.7Z"/>
  <path class="cls-1" d="M828.9,717.1h-2.6c-13.5,0-22.8-8.6-28.4-21.8l-54.1-125c-1.3-3.3-2.6-7.6-2.6-12.2,0-11.9,10.9-23.4,24.4-23.4s20.8,7.6,24.4,17.8l37.9,102.6,38.6-103.3c3.3-8.6,10.2-17.2,23.4-17.2s24.1,10.2,24.1,23.8-1.6,9.6-2.6,11.9l-54.1,125c-5.6,12.9-14.8,21.8-28.4,21.8Z"/>
  <path class="cls-1" d="M893.8,665.3v-.7c0-38.6,29.4-56.4,71.3-56.4s30.7,3,43.2,7.3v-3c0-20.8-12.9-32.3-37.9-32.3s-25.1,2-34.6,4.9c-3,1-4.9,1.3-7.3,1.3-11.5,0-20.8-8.9-20.8-20.5s5.6-16.5,13.5-19.5c15.8-5.9,33-9.2,56.4-9.2s47.2,7.3,59.7,19.8c13.2,13.2,19.1,32.7,19.1,56.4v80.5c0,13.5-10.9,24.1-24.4,24.1s-24.1-10.2-24.1-20.8v-.3c-12.2,13.5-29,22.4-53.4,22.4s-60.7-19.1-60.7-54.1ZM1008.9,653.7v-8.9c-8.6-4-19.8-6.6-32-6.6-21.4,0-34.6,8.6-34.6,24.4v.7c0,13.5,11.2,21.4,27.4,21.4,23.4,0,39.3-12.9,39.3-31Z"/>
  <g>
    <g>
      <path class="cls-1" d="M718.2,503.3c-35.2,0-63.8-28.6-63.8-63.8s17.4-51.6,43.3-60.4c2.6-.9,5.4.5,6.3,3.1.9,2.6-.5,5.4-3.1,6.3-21.9,7.4-36.6,27.9-36.6,51.1s24.2,53.9,53.9,53.9,53.9-24.2,53.9-53.9-18.9-48.7-44.8-53.2c-2.7-.5-4.5-3-4.1-5.7.5-2.7,3-4.5,5.7-4.1,30.8,5.2,53.1,31.7,53.1,62.9s-28.6,63.8-63.8,63.8Z"/>
      <path class="cls-1" d="M725.8,391.7c-3.1,0-5.7-2.2-5.8-4.9l-.6-34.6c-1.3,0-2.7.2-3.6,1-2.4,2.1-3,5.3-3.1,6v23.8c0,2.7-2.6,5-5.8,5s-5.8-2.2-5.8-5v-24c0-.1,0-.2,0-.4,0-.7.8-7.4,6.3-12.3,6-5.3,15.1-4.3,19.5-2.9,2.2.7,3.7,2.5,3.8,4.6l.7,38.7c0,2.7-2.5,5-5.7,5,0,0,0,0,0,0Z"/>
      <path class="cls-1" d="M721.4,440.8c-.2,0-.4,0-.7,0-1.8-.2-3.4-1.5-4-3.2,0-.1-4.2-11.6-6.6-18.1l-1.5-3.9c-1.8-.1-4.3,0-7.1,1-4.9,1.8-12.2,6.7-14.6,8.5-1.7,1.2-3.9,1.3-5.6.1-1.7-1.1-2.6-3.2-2.1-5.2.3-1.2,3-12.3,8.8-18.1l5.3-5.3c-.8-.6-2-1.1-3.5-1.1-2.7,0-5-2.2-5-5s2.2-5,5-5c8.6,0,13.2,6.2,14.6,9.8.7,1.8.2,3.9-1.1,5.2l-7.9,7.9c.9-.4,1.8-.8,2.7-1.1,7.9-3,14.8-1.2,15.5-1,1.5.4,2.7,1.6,3.3,3l2.5,6.6c.8,2.2,1.9,5,2.9,7.8.4-1.2.7-2.3.8-3.3.8-6.5,1.8-16.7,1.8-16.8.1-1.5.9-2.8,2.2-3.7.4-.2,2.5-1.6,8.4-3.9,4.1-1.6,8.5-2.4,12.5-2.8-.8-.6-1.6-1-2.2-1.1-2.6-.8-4.2-3.5-3.4-6.1.8-2.6,2.7-2.3,5.3-1.5,7,2,15.1,9,16.6,10.7,1.3,1.6,1.4,3.8.5,5.5-1,1.8-2.9,2.7-4.9,2.5-.1,0-12-1.4-20.6,2-2.1.8-3.6,1.5-4.7,2-.3,3.5-1,9.8-1.6,14.4-1,7.6-6.8,16.2-7.5,17.1-.9,1.3-2.5,2.1-4.1,2.1Z"/>
    </g>
    <circle class="cls-1" cx="606.1" cy="414.7" r="12.1"/>
    <circle class="cls-1" cx="631" cy="363.9" r="12.1"/>
    <circle class="cls-1" cx="684" cy="323.8" r="12.1"/>
    <circle class="cls-1" cx="752.1" cy="323.8" r="12.1"/>
    <circle class="cls-1" cx="808.4" cy="361.7" r="12.1"/>
    <circle class="cls-1" cx="832.2" cy="415.8" r="12.1"/>
  </g>
  <g>
    <path class="cls-1" d="M87,495.9c-.7,1.8-3.1,2.5-5.5,2.5s-5.3-.9-5.9-2.5l-6.1-16-6.1,16c-.6,1.6-3.2,2.5-6,2.5s-4.7-.6-5.4-2.5l-14.2-35.4c-.4-.9-.5-1.4-.5-1.9,0-3.3,5.7-5.7,9.4-5.7s3.4.6,4,2.2l8.2,23.4,5.9-19.8c.7-2.5,2.6-2.8,4.7-2.8s4,.3,4.7,2.8l5.9,19.8,8.2-23.4c.5-1.4,1.9-2.2,3.9-2.2,3.5,0,9.4,2.4,9.4,5.9s0,1.2-.4,1.7l-14.2,35.4Z"/>
    <path class="cls-1" d="M142.8,470.4c0,8.2-4.7,8.6-8.9,8.6h-17.7v.6c0,4.5,3.8,7.5,9.4,7.5s8.5-3.4,11.5-3.4,5.2,4,5.2,6.3c0,3.5-6.7,8.3-17.1,8.3s-23.2-7.8-23.2-19.5v-6.7c0-10.3,9.4-19,21.1-19s19.8,7.1,19.8,17.5ZM127.5,470.9c1.3,0,1.9-.5,1.9-2.2,0-3.7-3.3-5.5-6.7-5.5s-6.6,1.8-6.6,5.5v2.2h11.4Z"/>
    <path class="cls-1" d="M167.7,484.5c0-6.3-21.5-2-21.5-17.5s4.2-14.2,17.3-14.2,15.6,2.8,15.6,6.6-1.8,6.7-5.1,6.7-5.3-2.8-10.3-2.8-5.2,1.6-5.2,2.9c0,5.2,21.7,1.4,21.7,17.6s-6.2,14.2-17.7,14.2-17.5-4-17.5-8.5,1.8-6.3,4.7-6.3,5.1,4.1,12.4,4.1,5.7-1.7,5.7-3Z"/>
    <path class="cls-1" d="M198.5,481.7c0,2.7.9,3.6,3.8,3.6h4c4.1,0,6.1,3,6.1,6s-1.9,6-6.1,6h-4c-11.7,0-18-4.7-18-15.5v-34.9c0-2.6,3.8-4.3,7.1-4.3s7.2,1.7,7.2,4.3v6.7h10.4c2.3,0,3.5,2.6,3.5,5.1s-1.2,5.1-3.5,5.1h-10.4v18.1Z"/>
  </g>
</svg>